<?xml version="1.0" encoding="utf-8"?>
<!-- Generator: Adobe Illustrator 17.1.0, SVG Export Plug-In . SVG Version: 6.00 Build 0)  -->
<!DOCTYPE svg PUBLIC "-//W3C//DTD SVG 1.1//EN" "http://www.w3.org/Graphics/SVG/1.1/DTD/svg11.dtd">
<svg version="1.1" xmlns="http://www.w3.org/2000/svg" xmlns:xlink="http://www.w3.org/1999/xlink" x="0px" y="0px"
	 viewBox="0 0 100 100" enable-background="new 0 0 100 100" xml:space="preserve">
<g id="Layer_1" display="none">
	<path display="inline" fill="#FFFFFF" d="M50,100c27.613,0,50-22.387,50-50S77.613,0,50,0S0,22.388,0,50S22.388,100,50,100z
		 M50,9.375c22.436,0,40.625,18.189,40.625,40.625S72.436,90.625,50,90.625S9.375,72.436,9.375,50S27.564,9.375,50,9.375z
		 M68.762,76.245C64.929,69.882,57.959,65.625,50,65.625s-14.929,4.257-18.763,10.62l-8.038-4.827
		C28.662,62.332,38.623,56.25,50,56.25s21.332,6.082,26.801,15.168L68.762,76.245z M74.902,27.368
		c0.421,1.676-0.598,3.369-2.271,3.787c-1.721,0.439-3.76,1.181-5.554,2.087c1.037,1.114,1.673,2.612,1.673,4.257
		c0,3.449-2.801,6.25-6.25,6.25c-3.449,0-6.25-2.801-6.25-6.25c0-0.113,0.006-0.226,0.013-0.339
		c0.195-4.636,4.412-7.712,7.959-9.488c3.394-1.697,6.751-2.542,6.897-2.579C72.791,24.676,74.488,25.692,74.902,27.368z
		 M25.097,27.368c0.415-1.676,2.112-2.692,3.784-2.274c0.146,0.037,3.491,0.882,6.885,2.579c3.552,1.776,7.769,4.852,7.971,9.488
		c0.006,0.113,0.013,0.226,0.013,0.339c0,3.449-2.801,6.25-6.25,6.25s-6.25-2.801-6.25-6.25c0-1.645,0.635-3.143,1.673-4.257
		c-1.794-0.9-3.833-1.648-5.561-2.087C25.696,30.737,24.676,29.044,25.097,27.368z"/>
</g>
<g id="Layer_2">
	<path fill="#FFFFFF" d="M50,100c27.613,0,50-22.387,50-50S77.613,0,50,0S0,22.388,0,50S22.388,100,50,100z M50,9.375
		c22.436,0,40.625,18.189,40.625,40.625S72.436,90.625,50,90.625S9.375,72.436,9.375,50S27.564,9.375,50,9.375z M25,31.25
		c0-3.449,2.801-6.25,6.25-6.25s6.25,2.801,6.25,6.25c0,3.449-2.801,6.25-6.25,6.25S25,34.699,25,31.25z M62.5,31.25
		c0-3.449,2.801-6.25,6.25-6.25S75,27.801,75,31.25c0,3.449-2.801,6.25-6.25,6.25S62.5,34.699,62.5,31.25z M75,56.25v6.25h-6.25
		v9.375c0,5.176-4.199,9.375-9.375,9.375S50,77.051,50,71.875V62.5H25v-6.25H75z"/>
</g>
</svg>
