<?xml version="1.0" encoding="utf-8"?>
<!-- Generator: Adobe Illustrator 17.1.0, SVG Export Plug-In . SVG Version: 6.00 Build 0)  -->
<!DOCTYPE svg PUBLIC "-//W3C//DTD SVG 1.1//EN" "http://www.w3.org/Graphics/SVG/1.1/DTD/svg11.dtd">
<svg version="1.1" xmlns="http://www.w3.org/2000/svg" xmlns:xlink="http://www.w3.org/1999/xlink" x="0px" y="0px"
	 viewBox="0 0 100 100" enable-background="new 0 0 100 100" xml:space="preserve">
<g id="Layer_1" display="none">
	<path display="inline" fill="#FFFFFF" d="M50,100c27.613,0,50-22.387,50-50S77.613,0,50,0S0,22.388,0,50S22.388,100,50,100z
		 M50,9.375c22.436,0,40.625,18.189,40.625,40.625S72.436,90.625,50,90.625S9.375,72.436,9.375,50S27.564,9.375,50,9.375z
		 M68.762,76.245C64.929,69.882,57.959,65.625,50,65.625s-14.929,4.257-18.763,10.62l-8.038-4.827
		C28.662,62.332,38.623,56.25,50,56.25s21.332,6.082,26.801,15.168L68.762,76.245z M74.902,27.368
		c0.421,1.676-0.598,3.369-2.271,3.787c-1.721,0.439-3.76,1.181-5.554,2.087c1.037,1.114,1.673,2.612,1.673,4.257
		c0,3.449-2.801,6.25-6.25,6.25c-3.449,0-6.25-2.801-6.25-6.25c0-0.113,0.006-0.226,0.013-0.339
		c0.195-4.636,4.412-7.712,7.959-9.488c3.394-1.697,6.751-2.542,6.897-2.579C72.791,24.676,74.488,25.692,74.902,27.368z
		 M25.097,27.368c0.415-1.676,2.112-2.692,3.784-2.274c0.146,0.037,3.491,0.882,6.885,2.579c3.552,1.776,7.769,4.852,7.971,9.488
		c0.006,0.113,0.013,0.226,0.013,0.339c0,3.449-2.801,6.25-6.25,6.25s-6.25-2.801-6.25-6.25c0-1.645,0.635-3.143,1.673-4.257
		c-1.794-0.9-3.833-1.648-5.561-2.087C25.696,30.737,24.676,29.044,25.097,27.368z"/>
</g>
<g id="Layer_2" display="none">
	<path display="inline" fill="#FFFFFF" d="M50,100c27.613,0,50-22.387,50-50S77.613,0,50,0S0,22.388,0,50S22.388,100,50,100z
		 M50,9.375c22.436,0,40.625,18.189,40.625,40.625S72.436,90.625,50,90.625S9.375,72.436,9.375,50S27.564,9.375,50,9.375z M25,31.25
		c0-3.449,2.801-6.25,6.25-6.25s6.25,2.801,6.25,6.25c0,3.449-2.801,6.25-6.25,6.25S25,34.699,25,31.25z M62.5,31.25
		c0-3.449,2.801-6.25,6.25-6.25S75,27.801,75,31.25c0,3.449-2.801,6.25-6.25,6.25S62.5,34.699,62.5,31.25z M75,56.25v6.25h-6.25
		v9.375c0,5.176-4.199,9.375-9.375,9.375S50,77.051,50,71.875V62.5H25v-6.25H75z"/>
</g>
<g id="Layer_3" display="none">
	<path display="inline" fill="#FFFFFF" d="M50,100c27.613,0,50-22.387,50-50S77.613,0,50,0S0,22.388,0,50S22.388,100,50,100z
		 M50,9.375c22.436,0,40.625,18.189,40.625,40.625S72.436,90.625,50,90.625S9.375,72.436,9.375,50S27.564,9.375,50,9.375z M25,31.25
		c0,3.454,2.796,6.25,6.25,6.25s6.25-2.796,6.25-6.25S34.704,25,31.25,25S25,27.796,25,31.25z M62.5,31.25
		c0,3.454,2.796,6.25,6.25,6.25S75,34.704,75,31.25S72.204,25,68.75,25S62.5,27.796,62.5,31.25z M70.911,62.5h6.336
		c0.897,7.08-3.174,14.111-10.156,16.656c-8.093,2.942-17.077-1.245-20.032-9.338c-1.764-4.853-7.153-7.367-12.012-5.597
		c-4.443,1.618-6.927,6.274-5.957,10.779h-6.336c-0.897-7.08,3.174-14.111,10.156-16.656c8.093-2.948,17.077,1.245,20.032,9.338
		c1.764,4.853,7.153,7.367,12.012,5.597C69.397,71.661,71.881,67.004,70.911,62.5z"/>
</g>
<g id="Layer_4" display="none">
	<path display="inline" fill="#FFFFFF" d="M50,0C22.388,0,0,22.388,0,50s22.388,50,50,50s50-22.387,50-50S77.613,0,50,0z M68.75,25
		c3.449,0,6.25,4.199,6.25,9.375s-2.801,9.375-6.25,9.375s-6.25-4.199-6.25-9.375S65.301,25,68.75,25z M31.25,25
		c3.449,0,6.25,4.199,6.25,9.375s-2.801,9.375-6.25,9.375S25,39.551,25,34.375S27.801,25,31.25,25z M50,87.5
		c-16.293,0-29.825-13.662-31.25-31.082c9.155,5.288,19.925,8.307,31.25,8.307s22.095-3.006,31.25-8.295
		C79.825,73.856,66.293,87.5,50,87.5z"/>
</g>
<g id="Layer_5" display="none">
	<path display="inline" fill="#FFFFFF" d="M50,100c27.613,0,50-22.388,50-50S77.613,0,50,0S0,22.388,0,50S22.388,100,50,100z
		 M50,9.375c22.436,0,40.625,18.189,40.625,40.625S72.436,90.625,50,90.625S9.375,72.436,9.375,50S27.564,9.375,50,9.375z
		 M72.824,58.753l2.2,7.495l-42.682,12.5l-2.191-7.495L72.824,58.753z M25,31.25c0-3.449,2.801-6.25,6.25-6.25s6.25,2.801,6.25,6.25
		s-2.801,6.25-6.25,6.25S25,34.699,25,31.25z M62.5,31.25c0-3.449,2.801-6.25,6.25-6.25S75,27.801,75,31.25s-2.801,6.25-6.25,6.25
		S62.5,34.699,62.5,31.25z"/>
</g>
<g id="Layer_6" display="none">
	<path display="inline" fill="#FFFFFF" d="M50,100c27.613,0,50-22.387,50-50S77.613,0,50,0S0,22.388,0,50S22.388,100,50,100z
		 M50,9.375c22.436,0,40.625,18.189,40.625,40.625S72.436,90.625,50,90.625S9.375,72.436,9.375,50S27.564,9.375,50,9.375z M25,31.25
		c0,3.449,2.801,6.25,6.25,6.25s6.25-2.801,6.25-6.25S34.699,25,31.25,25S25,27.801,25,31.25z M62.5,31.25
		c0,3.449,2.801,6.25,6.25,6.25S75,34.699,75,31.25S72.199,25,68.75,25S62.5,27.801,62.5,31.25z M37.5,68.75h25V75h-25V68.75z"/>
</g>
<g id="Layer_7">
	<path fill="#FFFFFF" d="M50,100c27.613,0,50-22.387,50-50S77.613,0,50,0S0,22.388,0,50S22.388,100,50,100z M50,9.375
		c22.436,0,40.625,18.189,40.625,40.625S72.436,90.625,50,90.625S9.375,72.436,9.375,50S27.564,9.375,50,9.375z M25,31.25
		c0-3.449,2.801-6.25,6.25-6.25s6.25,2.801,6.25,6.25s-2.801,6.25-6.25,6.25S25,34.699,25,31.25z M62.5,31.25
		c0-3.449,2.801-6.25,6.25-6.25S75,27.801,75,31.25s-2.801,6.25-6.25,6.25S62.5,34.699,62.5,31.25z M31.237,76.245l-8.038-4.827
		C28.668,62.332,38.623,56.25,50,56.25s21.332,6.082,26.801,15.168l-8.038,4.827C64.929,69.882,57.959,65.625,50,65.625
		S35.071,69.882,31.237,76.245z"/>
	<g>
	</g>
	<g>
	</g>
	<g>
	</g>
	<g>
	</g>
	<g>
	</g>
	<g>
	</g>
</g>
</svg>
